<?xml version="1.0" encoding="UTF-8"?>
<svg id="Layer_1" data-name="Layer 1" xmlns="http://www.w3.org/2000/svg" viewBox="0 0 2000 534">
  <defs>
    <style>
      .cls-1 {
        fill: #823189;
      }

      .cls-2 {
        fill: #212529;
      }

      .cls-3 {
        fill: #83318a;
      }
    </style>
  </defs>
  <path class="cls-3" d="M258.36,343.65c-.76-5.97-1.4-12.24-1.9-18.85-.51-6.61-.95-13.4-1.34-20.38-.38-6.98-.57-13.52-.57-19.62v-41.51c0-14.22-1.85-26.34-5.53-36.38-3.69-10.03-9.08-18.22-16.19-24.57-7.11-6.34-15.88-10.91-26.28-13.71-10.41-2.79-22.35-4.19-35.8-4.19-21.84,0-40.12,4.19-54.84,12.57-14.73,8.37-25.27,18.91-31.61,31.61l48.75,17.51c2.03-7.61,5.97-13.26,11.8-16.94,5.84-3.68,12.82-5.53,20.95-5.53,10.15,0,17.96,2.23,23.42,6.67,5.45,4.45,8.19,12.12,8.19,23.04v7.24c-18.28,1.27-35.11,3.37-50.47,6.29-15.36,2.92-28.56,6.92-39.61,11.99-11.04,5.09-19.68,11.62-25.9,19.62s-9.32,17.71-9.32,29.13c0,8.64,1.71,16.38,5.14,23.24,3.42,6.85,8.11,12.7,14.09,17.52,5.95,4.82,12.88,8.51,20.75,11.04,7.87,2.53,16.25,3.81,25.14,3.81,13.71,0,25.89-2.1,36.56-6.29,10.66-4.19,19.54-11.24,26.66-21.13l6.85,22.85h53.7c-1.02-4.05-1.9-9.07-2.66-15.04ZM198.57,279.48c0,8.64-1.03,15.81-3.05,21.52-2.04,5.71-4.83,10.22-8.38,13.52-3.56,3.3-7.75,5.66-12.57,7.04-4.82,1.4-10.16,2.1-15.99,2.1-7.62,0-13.97-1.84-19.05-5.53-5.08-3.68-7.61-8.56-7.61-14.66,0-5.08,1.58-9.2,4.76-12.38,3.18-3.18,7.68-5.84,13.52-8,5.84-2.16,12.88-3.87,21.13-5.14,8.25-1.27,17.33-2.29,27.24-3.05v4.56Z"/>
  <polygon class="cls-3" points="362 298.52 321.62 169.79 261.83 169.79 329.24 358.7 394.37 358.7 462.16 169.79 402.37 169.79 362 298.52"/>
  <path class="cls-3" d="M886.17,224.7c-5.58-12.43-12.95-22.72-22.09-30.85-9.14-8.12-19.74-14.14-31.8-18.09-12.06-3.93-24.57-5.9-37.51-5.9s-25.84,1.97-37.9,5.9c-12.06,3.94-22.73,9.96-31.99,18.09-9.28,8.14-16.63,18.42-22.1,30.85-5.46,12.44-8.19,27.17-8.19,44.18s2.73,31.8,8.19,44.37c5.46,12.57,12.82,22.92,22.1,31.05,9.26,8.12,19.93,14.22,31.99,18.28,12.06,4.06,24.69,6.09,37.9,6.09s25.45-2.03,37.51-6.09c12.06-4.06,22.66-10.16,31.8-18.28,9.14-8.12,16.51-18.47,22.09-31.05,5.59-12.56,8.38-27.36,8.38-44.37s-2.79-31.74-8.38-44.18ZM823.9,311.15c-7.74,8.38-17.46,12.57-29.13,12.57s-21.78-4.19-29.52-12.57c-7.75-8.38-11.62-22.47-11.62-42.27,0-9.91,1.08-18.34,3.24-25.33s5.08-12.57,8.77-16.76c3.68-4.19,8.05-7.24,13.14-9.14,5.08-1.9,10.4-2.85,15.99-2.85s10.85.95,15.81,2.85c4.95,1.9,9.26,4.95,12.95,9.14,3.68,4.19,6.6,9.78,8.76,16.76,2.16,6.98,3.24,15.42,3.24,25.33,0,19.8-3.87,33.89-11.62,42.27Z"/>
  <polygon class="cls-3" points="995.31 303.92 954.94 175.19 895.15 175.19 962.56 364.1 1027.69 364.1 1095.48 175.19 1035.68 175.19 995.31 303.92"/>
  <path class="cls-3" d="M1168.81,78.74c-9.65,0-17.77,3.3-24.37,9.9-6.61,6.61-9.9,14.73-9.9,24.37s3.3,17.46,9.9,24.18c6.6,6.73,14.72,10.09,24.37,10.09s17.77-3.36,24.38-10.09c6.6-6.72,9.9-14.79,9.9-24.18s-3.3-17.77-9.9-24.37c-6.61-6.6-14.73-9.9-24.38-9.9Z"/>
  <polygon class="cls-3" points="1112.16 219.37 1147.96 219.37 1147.96 364.1 1206.23 364.1 1206.23 175.19 1112.16 175.19 1112.16 219.37"/>
  <path class="cls-3" d="M1416.46,349.05c-.76-5.97-1.4-12.25-1.9-18.85-.51-6.61-.95-13.4-1.34-20.38-.37-6.98-.57-13.52-.57-19.62v-41.51c0-14.22-1.85-26.34-5.53-36.38-3.68-10.03-9.08-18.22-16.19-24.57-7.11-6.34-15.86-10.91-26.28-13.71-10.41-2.79-22.34-4.19-35.8-4.19-21.84,0-40.12,4.19-54.84,12.56-14.73,8.38-25.27,18.92-31.61,31.62l48.75,17.51c2.03-7.61,5.97-13.26,11.8-16.94,5.85-3.68,12.83-5.53,20.95-5.53,10.16,0,17.96,2.23,23.42,6.67,5.45,4.45,8.19,12.12,8.19,23.04v7.24c-18.28,1.27-35.11,3.37-50.47,6.29-15.36,2.92-28.57,6.92-39.61,11.99-11.04,5.09-19.68,11.62-25.89,19.62-6.23,8-9.33,17.71-9.33,29.13,0,8.64,1.71,16.38,5.14,23.24,3.42,6.85,8.12,12.7,14.09,17.52,5.97,4.82,12.88,8.51,20.76,11.04,7.86,2.53,16.24,3.81,25.13,3.81,13.72,0,25.9-2.1,36.56-6.29,10.67-4.19,19.55-11.24,26.66-21.13l6.85,22.85h53.71c-1.03-4.05-1.91-9.07-2.67-15.04ZM1356.67,284.88c0,8.64-1.02,15.81-3.05,21.52-2.04,5.71-4.83,10.22-8.38,13.52-3.56,3.3-7.75,5.66-12.57,7.05-4.82,1.4-10.16,2.1-15.99,2.1-7.61,0-13.97-1.84-19.04-5.53-5.09-3.68-7.62-8.56-7.62-14.66,0-5.08,1.58-9.2,4.76-12.38s7.69-5.84,13.52-8c5.84-2.16,12.88-3.87,21.13-5.14,8.25-1.27,17.33-2.29,27.24-3.05v4.56Z"/>
  <g>
    <path class="cls-2" d="M509.5,207.08h-25.2v-12.91c0-13.92,11.28-25.2,25.2-25.2h0v38.11Z"/>
    <path class="cls-2" d="M536.25,357.83c6.34,1.13,14.24,1.69,23.66,1.69h-22.13c-29.53,0-53.47-23.94-53.47-53.47v-63.32h25.2v73.76c0,9.02.88,16.35,2.62,21.98,1.73,5.63,4.61,9.98,8.61,13.06,4,3.07,9.16,5.17,15.52,6.3Z"/>
    <path class="cls-2" d="M672.47,222.44v83.61c0,29.53-23.94,53.47-53.47,53.47h-29.58v-38.11h-13.52c-7.58,0-12.75-1.07-15.51-3.23-2.77-2.15-4.16-6.81-4.16-13.98v-61.47h33.19v-35.65h-33.19v-38.11h62.77c29.53,0,53.47,23.94,53.47,53.47Z"/>
  </g>
  <path class="cls-3" d="M1453.4,312.33c6.85-6.72,15.2-10.09,25.05-10.09,4.8,0,9.31.9,13.52,2.7,4.2,1.8,7.93,4.27,11.17,7.39,3.24,3.13,5.77,6.85,7.57,11.17,1.8,4.32,2.7,8.89,2.7,13.7s-.9,9.37-2.7,13.7c-1.8,4.33-4.33,8.11-7.57,11.35-3.24,3.24-6.97,5.77-11.17,7.57-4.21,1.8-8.71,2.7-13.52,2.7-9.86,0-18.2-3.42-25.05-10.27-6.85-6.85-10.27-15.19-10.27-25.05s3.42-18.14,10.27-24.87Z"/>
  <path class="cls-1" d="M1665.12,195.79c-21.07,0-39.64,8.92-51.08,23.43v-113.87l-61.3,1.12-1.35,270.11,58.86-.06.22-16.78c11.42,13.86,28.57,22.44,49.64,22.44,47.15,0,75.37-38.92,75.37-93.03,0-58.74-25-93.37-70.37-93.37ZM1643.69,344.25c-12.15,0-22.51-6.26-29.65-16.82v-72.92c8.21-12.87,19.29-20.45,32.14-20.45,17.87,0,30.72,10.56,30.72,55.1,0,40.91-13.57,55.09-33.22,55.09Z"/>
  <path class="cls-1" d="M1854.73,346.39h-26.39c-16.84,0-19.14-5.26-19.14-10.55,0-3.97,1.99-7.92,5.62-9.91,6.26,1.33,12.87,1.99,20.12,1.99,45.53,0,73.57-24.74,73.57-58.72,0-22.78-10.88-35.64-32.98-45.21,22.52,2.45,38.25,1.75,52.36-3.1l-10.64-29.43c-29.14,6.07-47,10.77-85.94,9.78-45.85,0-76.87,24.41-76.87,64,0,22.78,8.92,38.28,31.35,50.16-12.55,7.9-20.79,20.77-20.79,33.64,0,18.81,15.51,34.65,53.77,34.65h25.4c17.49,0,25.08,6.93,25.08,17.16,0,11.22-7.25,19.8-37.95,19.8s-38.27-6.61-38.27-21.78h-46.84c0,34.65,17.48,56.41,83.8,56.41,60.05,0,91.72-22.1,91.72-58.06,0-29.37-26.07-50.81-66.98-50.81ZM1832.63,235.54c17.48,0,26.39,8.9,26.39,28.38s-9.23,30.34-26.39,30.34c-15.85,0-26.39-10.55-26.39-29.69,0-18.15,10.23-29.03,26.39-29.03Z"/>
</svg>