<?xml version="1.0" encoding="UTF-8"?>
<svg id="Layer_1" data-name="Layer 1" xmlns="http://www.w3.org/2000/svg" viewBox="0 0 1672 534">
  <defs>
    <style>
      .cls-1 {
        fill: #231f20;
      }

      .cls-2 {
        fill: #fff;
      }

      .cls-3 {
        fill: none;
      }

      .cls-4 {
        fill: #212529;
      }

      .cls-5 {
        fill: #83318a;
      }
    </style>
  </defs>
  <path class="cls-5" d="M1232.57,167.73h102.24v205.31h-63.33v-157.3h-38.91v-48.02ZM1276.86,70.04c7.17-7.17,16-10.76,26.49-10.76s19.31,3.59,26.49,10.76c7.17,7.18,10.76,16.01,10.76,26.49s-3.59,18.98-10.76,26.29c-7.18,7.31-16.01,10.97-26.49,10.97s-19.32-3.65-26.49-10.97c-7.18-7.31-10.76-16.07-10.76-26.29s3.58-19.31,10.76-26.49Z"/>
  <g>
    <path class="cls-5" d="M779.52,221.54c5.93-13.52,13.93-24.69,24.01-33.53,10.07-8.83,21.66-15.38,34.77-19.66,13.1-4.28,26.84-6.42,41.19-6.42s27.66,2.14,40.77,6.42c13.1,4.28,24.63,10.83,34.56,19.66,9.94,8.83,17.94,20.01,24.01,33.53,6.07,13.52,9.11,29.53,9.11,48.02s-3.04,34.56-9.11,48.22c-6.07,13.66-14.07,24.91-24.01,33.74-9.93,8.83-21.46,15.46-34.56,19.87-13.11,4.41-26.7,6.62-40.77,6.62s-28.08-2.21-41.19-6.62c-13.11-4.41-24.7-11.03-34.77-19.87-10.08-8.83-18.08-20.08-24.01-33.74-5.94-13.66-8.9-29.73-8.9-48.22s2.96-34.49,8.9-48.02ZM911.16,315.51c8.41-9.11,12.62-24.42,12.62-45.95,0-10.76-1.18-19.93-3.52-27.53-2.35-7.59-5.52-13.66-9.52-18.21-4-4.55-8.69-7.86-14.07-9.93-5.38-2.07-11.11-3.11-17.18-3.11s-11.87,1.03-17.38,3.11c-5.52,2.07-10.28,5.38-14.28,9.93-4,4.55-7.18,10.63-9.52,18.21-2.35,7.59-3.52,16.76-3.52,27.53,0,21.53,4.2,36.84,12.63,45.95,8.41,9.11,19.11,13.66,32.08,13.66s23.25-4.55,31.67-13.66Z"/>
    <path class="cls-5" d="M997.87,167.73h64.99l43.88,139.91,43.88-139.91h64.99l-73.68,205.31h-70.78l-73.27-205.31Z"/>
    <path class="cls-5" d="M1371.03,285.91c6.76-8.69,16.14-15.79,28.15-21.32,12-5.52,26.35-9.86,43.05-13.04,16.69-3.17,34.98-5.45,54.85-6.83v-7.86c0-11.86-2.97-20.21-8.9-25.04-5.94-4.82-14.42-7.24-25.46-7.24-8.83,0-16.42,2-22.77,6-6.35,4-10.63,10.14-12.83,18.42l-52.98-19.04c6.89-13.8,18.35-25.25,34.36-34.36,16-9.11,35.87-13.66,59.61-13.66,14.62,0,27.59,1.52,38.91,4.55,11.31,3.04,20.83,8.01,28.56,14.9,7.72,6.9,13.59,15.8,17.59,26.7,4,10.9,6,24.08,6,39.53v45.12c0,6.62.21,13.73.62,21.32.41,7.59.89,14.97,1.45,22.15.55,7.18,1.24,14.01,2.07,20.49.83,6.49,1.79,11.94,2.9,16.35h-58.37l-7.45-24.84c-7.73,10.76-17.39,18.42-28.98,22.97s-24.84,6.83-39.74,6.83c-9.66,0-18.77-1.38-27.32-4.14-8.56-2.76-16.08-6.76-22.56-12-6.49-5.24-11.59-11.59-15.32-19.04-3.73-7.45-5.59-15.87-5.59-25.25,0-12.42,3.38-22.97,10.14-31.67ZM1472.24,332.69c5.24-1.51,9.79-4.07,13.66-7.66,3.86-3.58,6.89-8.49,9.11-14.69,2.2-6.21,3.31-14,3.31-23.39v-4.97c-10.76.83-20.63,1.93-29.6,3.31-8.97,1.38-16.63,3.25-22.97,5.59-6.35,2.35-11.25,5.25-14.7,8.69s-5.17,7.94-5.17,13.45c0,6.62,2.76,11.94,8.28,15.94,5.52,4,12.42,6,20.7,6,6.34,0,12.14-.76,17.39-2.28Z"/>
    <g>
      <path class="cls-5" d="M175.29,285.91c6.76-8.69,16.14-15.79,28.15-21.32,12-5.52,26.35-9.86,43.05-13.04,16.69-3.17,34.98-5.45,54.85-6.83v-7.86c0-11.86-2.97-20.21-8.9-25.04-5.94-4.82-14.42-7.24-25.46-7.24-8.83,0-16.42,2-22.77,6-6.35,4-10.63,10.14-12.83,18.42l-52.98-19.04c6.89-13.8,18.35-25.25,34.36-34.36,16-9.11,35.87-13.66,59.61-13.66,14.62,0,27.59,1.52,38.91,4.55,11.31,3.04,20.83,8.01,28.56,14.9,7.72,6.9,13.59,15.8,17.59,26.7,4,10.9,6,24.08,6,39.53v45.12c0,6.62.21,13.73.62,21.32.41,7.59.89,14.97,1.45,22.15.55,7.18,1.24,14.01,2.07,20.49.83,6.49,1.79,11.94,2.9,16.35h-58.37l-7.45-24.84c-7.73,10.76-17.39,18.42-28.98,22.97s-24.84,6.83-39.74,6.83c-9.66,0-18.77-1.38-27.32-4.14-8.56-2.76-16.08-6.76-22.56-12-6.49-5.24-11.59-11.59-15.32-19.04-3.73-7.45-5.59-15.87-5.59-25.25,0-12.42,3.38-22.97,10.14-31.67ZM276.5,332.69c5.24-1.51,9.79-4.07,13.66-7.66,3.86-3.58,6.89-8.49,9.11-14.69,2.2-6.21,3.31-14,3.31-23.39v-4.97c-10.76.83-20.63,1.93-29.6,3.31-8.97,1.38-16.63,3.25-22.97,5.59-6.35,2.35-11.25,5.25-14.7,8.69s-5.17,7.94-5.17,13.45c0,6.62,2.76,11.94,8.28,15.94,5.52,4,12.42,6,20.7,6,6.34,0,12.14-.76,17.39-2.28Z"/>
      <path class="cls-5" d="M643.13,167.73v-51.33h62.92v51.33h44.71v48.02h-44.71v82.79c0,9.66,1.86,15.94,5.59,18.83,3.73,2.9,10.69,4.35,20.9,4.35h18.21v51.33h-39.74c-12.7,0-23.32-.76-31.87-2.28-8.56-1.51-15.52-4.35-20.9-8.49-5.38-4.14-9.25-10-11.59-17.59-2.35-7.59-3.52-17.45-3.52-29.6v-99.35h-33.94v-48.02h33.94Z"/>
      <path class="cls-4" d="M443.57,371l-23.22.05c-19.38,0-35.09-15.71-35.09-35.1v-121.49l58.31,156.54Z"/>
      <path class="cls-4" d="M589.87,201.59v134.41c0,19.39-15.71,35.1-35.09,35.1h-60.16s57.1-157.01,57.1-157.01h-49.73l-33.57,107.06-33.58-107.06h-49.57v-12.5c0-19.39,15.71-35.1,35.09-35.1h134.42c19.38,0,35.09,15.71,35.09,35.1Z"/>
      <path class="cls-2" d="M385.11,214.04l.15.42v-.42h-.15ZM495.33,371.14l.03-.09"/>
      <g>
        <path class="cls-4" d="M494.58,372.86c-.05-.3-.03-.49.02-.56l.03-1.25-50.89-.04h-.17l-3.98,1.14-.3.08-.28.07-.45.13h-.01s-.23.07-.23.07l-3.9,1.07c-10.81,2.94-21.46,5.73-32.2,8.57l-46.25,12.39-178.27,48.24-54.87,14.68c-8.22,2.18-16.51,4.28-24.85,6.55l-2.87,1.69h197.97c15.15-8.16,30.97-16.43,45.55-24.62h22.69c-13.01,8.21-25.56,16.44-38.25,24.62h200.41c.91-.8-28.43-88.91-28.91-92.82ZM388.06,423.47h-2.39c-4.66-.01-9.36-.01-14.11.01,10.63-5.87,21.76-11.74,32.53-17.6l11.22-.03c-8.91,5.84-18.07,11.74-27.24,17.61ZM428.81,397.16c-.96.28-1.42.23-2.07.24-2.42.04-4.77.03-7.15.04,7.72-4.12,15.2-8.3,22.74-12.44,1.74-.03,3.36.01,5.02.03-3.54,2.55-14.3,9.63-18.54,12.13ZM466.88,372.51c-2.86,1.82-11.48,7.6-14.31,8.97l-.73.1h-3.13c5.57-3.15,11.46-6.28,17.2-9.4.38.03.75.07,1.11.11l-.14.23Z"/>
        <path class="cls-4" d="M518.06,449.09c-6.7-25.37-19.52-50.44-23.48-76.23-.05-.3-.03-.49.02-.56l.03-1.25-50.89-.04h-.17l-3.98,1.14-.3.08-.28.07s-.45.13-.46.14l-.23.06-3.9,1.07c-10.81,2.94-21.46,5.73-32.2,8.57l-46.25,12.39-178.27,48.24-54.87,14.68c-8.22,2.18-16.51,4.28-24.85,6.55-2.02.55-4.05,1.11-6.08,1.69h201.18c15.15-8.16,30.97-16.43,45.55-24.62h22.69c-13.01,8.21-25.56,16.44-38.25,24.62h200.41c-.89,0-3.43-9.02-5.43-16.59ZM388.06,423.47h-2.39c-4.66-.01-9.36-.01-14.11.01,10.63-5.87,21.76-11.74,32.53-17.6l11.22-.03c-8.91,5.84-18.07,11.74-27.24,17.61ZM428.81,397.16c-.96.28-1.42.23-2.07.24-2.42.04-4.77.03-7.15.04,7.72-4.12,15.2-8.3,22.74-12.44,1.74-.03,3.36.01,5.02.03-3.54,2.55-14.3,9.63-18.54,12.13ZM466.88,372.51c-2.86,1.82-11.48,7.6-14.31,8.97l-.73.1h-3.13c5.57-3.15,11.46-6.28,17.2-9.4.38.03.75.07,1.11.11l-.14.23Z"/>
        <polyline class="cls-3" points="443.75 371.01 439.31 372.22 439.03 372.3 439.02 372.3 434.43 373.56"/>
        <polyline class="cls-3" points="444.56 370.73 443.57 371.01 443.57 371.01 439.3 372.22 439.02 372.3 438.57 372.43 438.56 372.43 438.33 372.5"/>
        <polyline class="cls-3" points="494.59 372.86 494.6 372.3 494.63 371.05"/>
      </g>
    </g>
    <g>
      <path class="cls-1" d="M640.5,436.73c0-16.14,11.56-27.6,27.19-27.6s27.18,11.46,27.18,27.6-11.56,27.6-27.18,27.6-27.19-11.46-27.19-27.6ZM689.56,436.73c0-13.64-9.37-22.91-21.87-22.91s-21.87,9.27-21.87,22.91,9.37,22.91,21.87,22.91,21.87-9.27,21.87-22.91Z"/>
      <path class="cls-1" d="M716.85,409.54h5.21v24.79h36.87v-24.79h5.21v54.37h-5.21v-25h-36.87v25h-5.21v-54.37Z"/>
      <path class="cls-1" d="M834.13,409.54v54.37h-5.21v-49.68h-28.33l-.73,14.48c-1.04,19.06-3.12,35.83-14.48,35.83-1.35,0-2.81-.31-4.48-.73l.52-4.48c.83.21,1.77.42,2.5.42,9.27,0,10.31-15.73,11.14-31.46l.94-18.75h38.12Z"/>
      <path class="cls-1" d="M900.58,429.44v34.48h-5v-9.69c-3.44,6.25-10.1,10.1-19.58,10.1-12.19,0-19.58-6.25-19.58-15.52,0-8.23,5.21-15.21,20.31-15.21h18.64v-4.37c0-10.1-5.52-15.52-16.14-15.52-7.5,0-14.27,2.81-18.75,6.87l-2.6-3.75c5.42-4.79,13.33-7.71,21.77-7.71,13.44,0,20.94,6.87,20.94,20.31ZM895.37,447.87v-10.21h-18.54c-11.25,0-15.21,4.69-15.21,10.94,0,7.08,5.52,11.46,15.1,11.46s15.52-4.37,18.64-12.19Z"/>
      <path class="cls-1" d="M926.72,409.54h5.21v46.35l38.75-46.35h4.58v54.37h-5.21v-46.35l-38.75,46.35h-4.58v-54.37ZM935.99,388.4h3.85c.21,5.73,4.79,9.27,10.94,9.27s10.73-3.54,10.83-9.27h3.96c-.21,8.12-6.25,12.81-14.79,12.81s-14.58-4.69-14.79-12.81Z"/>
      <path class="cls-1" d="M1002.76,409.54h5.21v24.79h36.87v-24.79h5.21v54.37h-5.21v-25h-36.87v25h-5.21v-54.37Z"/>
      <path class="cls-1" d="M1153.47,449.33c0,9.37-6.67,14.58-20.62,14.58h-23.54v-54.37h22.91c11.98,0,19.37,4.79,19.37,13.85,0,6.46-3.85,10.73-10.1,12.5,8.23,1.46,11.98,6.04,11.98,13.44ZM1114.41,434.33h17.5c9.27,0,14.48-3.54,14.48-10.31s-5.21-10.21-14.48-10.21h-17.5v20.52ZM1148.26,449.12c0-7.4-4.48-10.73-14.69-10.73h-19.17v21.25h18.33c10.1,0,15.52-3.23,15.52-10.52Z"/>
      <path class="cls-1" d="M1177.01,409.54h5.21v46.35l38.75-46.35h4.58v54.37h-5.21v-46.35l-38.75,46.35h-4.58v-54.37Z"/>
      <path class="cls-1" d="M1253.04,409.54h5.21v24.79h36.87v-24.79h5.21v54.37h-5.21v-25h-36.87v25h-5.21v-54.37Z"/>
      <path class="cls-1" d="M1374.17,437.98h-46.77c.52,12.92,10,21.66,23.02,21.66,6.88,0,13.23-2.5,17.39-7.6l3.02,3.44c-4.79,5.83-12.29,8.85-20.52,8.85-16.46,0-28.02-11.46-28.02-27.6s11.14-27.6,26.04-27.6,25.94,11.25,25.94,27.39c0,.42-.1.94-.1,1.46ZM1327.51,433.91h41.66c-.73-11.77-9.27-20.21-20.83-20.21s-20,8.33-20.83,20.21Z"/>
      <path class="cls-1" d="M1430.11,414.23h-21.25v49.68h-5.21v-49.68h-21.25v-4.69h47.7v4.69Z"/>
      <path class="cls-1" d="M1464.69,438.71h-13.23v25.21h-5.21v-54.37h5.21v24.69h13.23l20.52-24.69h5.73l-22.08,26.35,23.75,28.02h-6.25l-21.67-25.21Z"/>
      <path class="cls-1" d="M1510.41,409.54h5.21v46.35l38.75-46.35h4.58v54.37h-5.21v-46.35l-38.75,46.35h-4.58v-54.37Z"/>
    </g>
  </g>
</svg>